<svg xmlns="http://www.w3.org/2000/svg" viewBox="0 0 100 100" width="100" height="100">
  <defs>
    <linearGradient id="mboxBody" x1="0" y1="0" x2="0" y2="1">
      <stop offset="0" stop-color="#37B6C4"/>
      <stop offset="1" stop-color="#1E8C9B"/>
    </linearGradient>
  </defs>
  <ellipse cx="50" cy="92" rx="22" ry="5" fill="#000000" opacity="0.12"/>
  <!-- post -->
  <rect x="46" y="60" width="8" height="32" rx="2" fill="#9C6330"/>
  <!-- box -->
  <path d="M28 40 Q28 26 50 26 Q72 26 72 40 V62 H28 Z" fill="url(#mboxBody)"/>
  <rect x="28" y="58" width="44" height="6" fill="#1E8C9B"/>
  <!-- mail slot / door -->
  <rect x="38" y="40" width="24" height="16" rx="3" fill="#0F6B78"/>
  <rect x="42" y="46" width="16" height="3" rx="1.5" fill="#BFEFF4"/>
  <!-- flag -->
  <rect x="72" y="34" width="3" height="20" fill="#C9472F"/>
  <path d="M75 34 h12 v9 h-12 z" fill="#E85A3C"/>
  <!-- envelope peeking -->
  <path d="M44 30 h12 v8 h-12 z" fill="#FFF7E8"/>
  <path d="M44 30 l6 5 6-5" fill="none" stroke="#E0C58A" stroke-width="1.4"/>
</svg>
